<svg xmlns="http://www.w3.org/2000/svg" viewBox="0 0 200 200" fill="none">
  <circle cx="100" cy="100" r="100" fill="#EF0000"/>
  <!-- Airtel swoosh: outer arc -->
  <path d="M100 38
    C124 38 145 52 155 74
    C163 92 158 114 144 126
    C158 108 160 84 146 66
    C132 48 108 44 88 52
    C68 60 56 80 60 100
    C64 120 80 134 100 136
    C84 140 66 132 56 118
    C44 102 44 80 56 64
    C68 46 84 38 100 38Z"
    fill="white"/>
  <!-- Inner loop -->
  <path d="M100 136
    C118 130 130 114 130 96
    C130 80 118 68 102 66
    C90 64 80 70 76 82
    C72 94 80 108 92 112
    C100 116 110 112 112 102
    C114 92 108 82 98 82
    C92 82 88 88 90 94
    C92 100 98 102 100 96"
    fill="none" stroke="white" stroke-width="10" stroke-linecap="round"/>
  <!-- airtel wordmark -->
  <text x="100" y="174" font-family="Arial, Helvetica, sans-serif" font-size="30" font-weight="bold" fill="white" text-anchor="middle" letter-spacing="0.5">airtel</text>
</svg>
